<svg height="512pt" preserveAspectRatio="xMidYMid meet" viewBox="0 0 512 512" width="512pt" xmlns="http://www.w3.org/2000/svg"><g transform="matrix(.003922 0 0 -.003922 0 512)"><path d="m58905 106434c-3027-970-5141-1896-5539-2427-234-312-588-385-1412-292-1220 138-3377-913-3652-1779-84-266-395-446-770-446-1058 0-2383-696-2647-1390-169-444-439-650-850-650-900 0-5785-3929-5785-4653 0-467-1411-1722-1936-1722-552 0-4727-5249-5234-6580-131-347-520-965-863-1372-789-937-2773-5008-3573-7330-589-1710-277-1757 2979-445 2594 1045 3830 1435 8245 2597 4444 1169 17013 1411 22312 429 14647-2715 22313-6714 26125-13628 1187-2152 1206-2150 3901 414 1338 1272 1387 876-534 4294-3394 6041-6876 11359-9758 14906-986 1214-1062 1672-386 2348 263 263 528 628 589 811 284 852 2194-1417 5053-6004 1913-3069 4932-8018 6494-10644 1992-3350 1881-3293 3572-1848 1535 1311 1644 1615 944 2633-1028 1494-1705 4292-1952 8072-758 11594-3274 19178-6691 20172-736 213-1399 487-1473 608-75 121-565 359-1089 529s-1260 525-1637 789c-703 493-6178 1999-7267 1999-335 0-915 201-1290 446-564 370-1189 437-3625 393-4374-80-4469-80-7916 33-2320 76-3500 4-4335-263zm9551-5750c357-163 648-478 647-701-2-223 358-702 799-1065l802-659-924-571c-1357-838-3100-54-1886 849 671 499 543 866-446 1279-491 205-893 474-893 598 0 621 862 743 1901 270zm7031-1423c347-244 975-617 1396-829 916-461 1161-1412 423-1647-573-181-2686 1124-3114 1924-524 979 232 1301 1295 552zm-3224-6285c1479-618 2573-2706 1417-2706-754 0-2917 2105-2712 2640 195 509 231 511 1295 66zm-16498-1163c948-578 1497-1425 1089-1678-293-181-3559 1153-3559 1454 0 731 1426 860 2470 224zm10153-1003c1164-534 1761-1129 2143-2134 425-1119-323-896-2444 728-2328 1783-2167 2539 301 1406zm-25628-3458c0-186 230-398 510-471 618-161 643-721 104-2303-547-1604-1379-1709-1379-173 0 850-85 1020-510 1020-742 0-665 1143 130 1938 637 637 1145 632 1145-11zm35227-405c1060-1114 1468-2159 1020-2607-274-274-2716 2035-3371 3189-566 996 1286 538 2351-582zm-5405-1436c1267-1610 842-3019-522-1729-948 897-1286 1653-934 2089 400 497 874 380 1456-360z"/><path d="m93840 97788c0-72 340-1363 756-2868 1027-3720 1446-6335 1787-11152 403-5702 1516-9607 2634-9242 1824 594 5278 7639 5278 10763 0 2473-4390 8806-6104 8806-346 0-636 280-870 839-489 1170-3481 3624-3481 2854zm6582-8474c419-833 884-2883 696-3068-423-415-2348 2449-2092 3114 206 539 1117 508 1396-46z"/><path d="m106109 82046c-117-315-287-975-378-1466-90-491-697-1810-1348-2932-2842-4901-3343-7346-2072-10111 1159-2521 4346-5403 7419-6709 2424-1030 2990-412 2078 2274-289 851-322 1288-124 1657 266 496 224 946-538 5876-530 3423-3783 11985-4553 11985-149 0-366-258-484-574z"/><path d="m45263 78292c-8621-371-19674-4372-20284-7343-107-523-328-1617-490-2431-2023-10151 203-20675 6307-29822l1660-2486h1378c3338 0 10648 2140 17039 4989 5582 2488 13838 7068 18360 10185 841 580 2677 1840 4080 2800 11061 7572 12678 10244 8779 14510-2413 2640-10376 6493-15537 7518-631 126-2180 463-3442 751-4617 1051-11827 1588-17850 1329zm127-5517c0-920-613-2395-995-2395-613 0-863 789-566 1782 563 1880 1561 2272 1561 613zm-6613 656c942-504 53-3035-1148-3267-435-83-461 34-302 1384 230 1958 545 2367 1450 1883zm-8572-2266c80-130-72-618-339-1084-267-467-621-1279-788-1805-547-1729-1427-740-1142 1285 214 1529 1677 2562 2269 1604zm2435-5797c0-1521-330-1869-1285-1357-676 361-585 2000 155 2818 686 758 1130 184 1130-1461zm23920 775c141-992-1279-1883-3002-1883-1909 0-2154 455-914 1695 1102 1102 3767 1230 3916 188zm18410-2467c0-680-214-1017-1132-1785-1724-1440-1887-1138-634 1176 932 1721 1766 2009 1766 609zm-17193-1824c179-714-22-1162-522-1162-189 0-1064-341-1945-757-1863-881-2343-727-2219 715 130 1522 4335 2603 4686 1204zm10002 317c775-775 370-1929-712-2032-1697-162-2907 789-2466 1939 188 491 2707 564 3178 93zm-18881-4794c93-2347-115-2565-1643-1719-1238 685-1268 752-962 2159 141 649 1276 1363 2030 1276 443-51 518-273 575-1716zm-10791-1824c191-1590-26-1947-902-1478-625 335-605 2415 31 3182 451 544 645 164 871-1704zm28604 1436c1190-1190 779-1791-1176-1718-1747 65-2801 784-2804 1915-2 790 3149 634 3980-197zm-26234-1206c559-715 991-3251 554-3251-958 0-1814 1098-1651 2116 239 1494 558 1824 1097 1135zm-7303-3317c463-162 1143-2294 872-2733-127-207-352-175-791 113-379 248-857 340-1251 241-632-159-639-143-639 1482 0 1908 148 2164 874 1513 290-261 711-538 935-616zm21651-1223c0-1519-2399-3730-2827-2605-368 967-141 1566 1065 2819 1165 1210 1762 1137 1762-214zm-10891-7462c319-831-650-3744-1245-3744-346 0-474 324-731 1849-231 1370 1530 3058 1976 1895zm-7576-2168c503-1651 523-1883 170-2018-915-352-2567 2800-1972 3762 502 814 1240 100 1802-1744zm-3718-683c475-351 1071-638 1325-638 353 0 460-201 460-865 0-2020-1901-902-2662 1566-222 719-179 716 877-63z"/><path d="m96975 69470c-392-501-1028-1077-1414-1282-906-479-883-827 157-2457 1402-2195 4670-9206 6154-13201 1199-3230 1947-10426 1428-13741-448-2855 401-2498 2049 864 413 841 1203 2275 1756 3187s1135 2059 1292 2550c158 491 577 1520 931 2287 1007 2179 2107 6250 2107 7798 0 751-152 969-1084 1552-3534 2214-4829 3181-6584 4916-2276 2251-3547 4137-4476 6643-780 2103-1228 2274-2316 884zm7560-13480c664-800 225-2236-792-2586-1177-406-1283-291-798 868 215 515 489 1194 609 1509 252 662 552 726 981 209z"/><path d="m90780 64374c-2244-1695-2261-1735-1431-3374 5137-10137 3816-27757-2693-35938-711-894-1236-1682-1166-1752 212-212 2181 676 2324 1048 74 192 628 489 1231 661 1621 461 4837 2497 4741 3001-118 618-1134 645-1889 51-811-637-1217-453-990 452 238 946 604 1312 1316 1312 338 0 898 186 1245 413 728 477 1392 139 1392-707 0-910 720-793 2045 335 4913 4178 5659 13694 1881 23975-1164 3169-4517 9990-5541 11274l-553 694z"/><path d="m83513 58698c-3112-3027-9669-7733-18743-13451-7072-4457-17946-9024-25500-10710-1753-392-3290-800-3415-907-576-495 3663-4151 8678-7484 1479-982 6090-3196 6659-3196 204 0 700-276 1101-613 1685-1419 6242-2514 6995-1682 640 708 1056 641 1926-312l750-821 5547-7c5147-7 5659 34 7107 571 858 318 1734 512 1947 430 586-225 3986 868 5334 1714 2954 1854 5379 6131 6695 11813 228 981 521 2244 652 2805 1437 6166 414 18231-1942 22886-833 1646-1115 1569-3791-1036zm-2628-10675c362-328 542-358 772-128 742 742 1516-988 797-1782-879-972-1925-276-2285 1522-182 912 17 1020 716 388zm-12858-2932c228-228 454-228 947-4 1161 529 2118-1106 1186-2025-89-88-896-239-1793-335l-1631-176 163 1186c229 1677 491 1991 1128 1354zm12637-1486c768 0 864-418 401-1747-359-1029-807-1016-1620 50-942 1236-848 2951 114 2080 233-211 730-383 1105-383zm-2401-4113c1140-1432 1242-1862 645-2715-540-772-881-716-1842 304-883 936-1160 2768-515 3413 472 472 597 399 1712-1002zm-8520 168c0-681-1015-1147-2508-1151-1529-5-1497 398 98 1215 1358 697 2410 669 2410-64zm3208-3342c386-349 847-524 1573-598 441-45 1188-1057 1049-1421-232-603-3376-260-3982 435-1081 1241 153 2677 1360 1584zm-13443-892c1199-943 897-1306-922-1108-2075 226-2205 329-1317 1039 917 734 1376 748 2239 69zm6040-1900c874-452 879-467 351-995-738-739-3169-468-3169 352 0 902 1607 1269 2818 643zm-13773-1560c1820-1205 1410-2232-536-1342-2035 930-2353 1118-2622 1548-869 1392 920 1275 3158-206zm17136-1329c1912-1824 1260-2761-1087-1564-2025 1033-2250 2515-421 2772 115 17 794-527 1508-1208zm3362 494c813-849 694-1296-344-1296-1066 0-2131 919-1794 1548 382 714 1318 603 2138-252zm-24919-2316c547 0 2098-1534 1948-1927-198-516-946-458-1462 112-239 264-940 673-1558 909-631 241-1191 644-1279 920-272 857 101 1024 1096 490 518-277 1082-504 1255-504zm13341-131c1303-822 1284-1144-69-1143-751 1-1311 184-1826 596-1480 1184 143 1653 1895 547zm16425-3665c476-770-2868-1411-3783-725-838 628-241 951 1761 951 1035 0 1945-102 2022-226zm-12990-572c957-564 1081-1118 352-1576-313-197-589-125-1122 294-389 306-1151 627-1694 714s-1049 258-1124 379c-545 882 2172 1025 3588 189z"/></g></svg>