<svg height="512pt" preserveAspectRatio="xMidYMid meet" viewBox="0 0 512 512" width="512pt" xmlns="http://www.w3.org/2000/svg"><g transform="matrix(.003922 0 0 -.003922 0 512)"><path d="m66523 122464c-598-1087-1581-2742-2185-3678-5896-9143-6529-14439-2382-19932 1627-2155 2464-2280 1605-241-1275 3031-906 5037 1993 10821 2278 4543 2304 4524 5280-3736 779-2163 881-5283 224-6839-383-905-382-968 15-892 1073 207 3879 4810 3915 6423 10 438 103 1015 208 1281 766 1954-2934 12547-6178 17685-941 1490-1243 1382-2495-892z"/><path d="m66972 107291c-2697-4304-2953-5846-1463-8810 1129-2245 1813-7864 1018-8356-190-117-3273-238-6852-268-3921-33-6793-164-7225-331-395-152-1600-276-2678-276-10974-1-15049-7439-4612-8419 3608-339 6539-993 10685-2383 4500-1510 9843-2575 12495-2491 4219 133 9321 1175 11521 2353 1493 798 7019 2282 9899 2658 7252 945 5642 5366-2600 7140-3799 818-9741 1478-12572 1396-1876-54-6215 546-6509 900-139 168-281 1613-315 3210l-61 2904 941 1657c1655 2913 1681 5253 94 8385-720 1419-1208 1622-1766 731z"/><path d="m94223 80498c-754-520-3012-1148-5610-1559-1263-200-3787-894-5610-1543-11535-4106-19526-4246-28589-501-1781 736-6746 1864-8896 2020-2807 204-4256 508-5679 1192-1881 904-1844 1032-1712-5955 154-8114 386-12236 1013-18052 584-5410 1014-8126 1337-8449 208-208 222-444 44-776-172-321-162-1322 29-3057 476-4333 601-9049 538-20364l-60-10844 587-886c2762-4170 20767-6922 35013-5353 11804 1300 16866 3622 16965 7782 89 3716-193 32272-319 32398-82 82-780 32-1551-110-1596-295-2812-57-3841 753-620 487-2617 4241-2382 4476 339 339 991-372 1237-1350 369-1465 2099-2891 3506-2889 2388 2 3428 1724 3854 6374 161 1753 509 5196 775 7650 395 3657 636 8806 860 18360 23 1017-610 1304-1509 683z"/></g></svg>