<svg height="512pt" preserveAspectRatio="xMidYMid meet" viewBox="0 0 512 512" width="512pt" xmlns="http://www.w3.org/2000/svg"><g transform="matrix(.003922 0 0 -.003922 0 512)"><path d="m53708 109641c-3039-910-3370-4276-1199-12174 280-1020 450-2012 376-2204-563-1467 1398-3718 3239-3718 1360 0 6154 2402 7046 3530 3191 4037 3082 8409-278 11136-516 419-1366 1118-1889 1553-2105 1754-5117 2529-7295 1877z"/><path d="m47048 109270c-141-47-1074-324-2074-616l-1818-530-1975-2691c-2169-2957-3254-3684-6866-4601-3688-936-3460-829-3460-1632 0-1042-492-1234-1083-422-1053 1446-2853 1395-4126-117-1009-1200-302-3810 1221-4504 470-214 687-557 800-1262 700-4390 1975-6683 4258-7662 379-162 883-593 1122-957 907-1385 2960-1934 7457-1995 2928-41 3178-83 3611-617 529-654 926-699 2360-269 902 270 1055 251 1359-163 470-643 33-1393-922-1584-1167-234-1290-575-774-2141 255-770 547-1915 650-2543 348-2117 1224-2486 3360-1414 679 341 1875 914 2658 1273 1231 565 3588 2231 7242 5120 532 420 2328 2142 3991 3825 3713 3757 4069 3454 785-668-1565-1965-6014-5916-7773-6905-825-463-2045-1204-2712-1646s-1892-1156-2722-1587c-2168-1126-2402-1360-2402-2404 0-1058-304-1325-1506-1325-1161 0-1296-534-188-742 1663-312 1819-1542 218-1730-530-62-709-255-841-906-92-455-299-985-459-1178s-626-1369-1036-2615c-1817-5529-1742-9476 202-10580 669-380 747-591 1040-2805 586-4435 1719-7877 2592-7877 561 0 998-729 998-1664 0-373 229-970 510-1326 343-436 510-1035 510-1826 0-647 234-1792 520-2544 313-825 505-1889 481-2678-44-1479 369-4371 842-5899 212-686 306-2696 284-6123l-32-5103-1074-2384c-1162-2581-1317-3566-746-4750l369-765 6474-69c7681-81 7502-138 7394 2359-176 4021-59 4691 916 5266 1118 660 1114 751-142 3468-754 1632-1099 2787-1277 4276-133 1122-361 2987-506 4144-269 2156-133 3504 674 6710 197 780 358 1861 358 2401 0 721 305 1471 1148 2823 631 1012 1147 2022 1147 2244 0 221 392 1124 871 2005s1122 2457 1428 3501c451 1537 606 1813 810 1447 404-721-445-4354-1854-7936-690-1755-1257-3333-1259-3508-2-174-163-775-358-1336-598-1718 187-2002 1090-394 312 555 911 1272 1331 1594 420 321 1095 888 1501 1259 2822 2579 10072 3467 14418 1765 3666-1437 4539-2774 996-1527-829 292-2195 573-3036 625-842 51-2004 170-2583 264-2289 370-7049-1088-9135-2798-4106-3364-4018-11300 179-16160 526-609 956-1245 956-1415 0-169 532-915 1182-1658 1343-1536 1250-1997-293-1447-4043 1439-8776-3348-6898-6979 562-1086 17-1052 16686-1052h15481l3177 1300c1748 716 3866 1556 4708 1868 2011 745 2478 1002 4565 2509 968 699 2148 1378 2623 1509 652 180 1198 693 2242 2105 759 1026 1530 2024 1713 2216 379 401 1422 1973 2177 3283 2628 4561 2981 12498 711 15963-711 1085-1409 807-1409-562 0-5560-8366-17086-15158-20885-2161-1208-2299-1062-1390 1471 1548 4312 2230 11184 1401 14103-197 692-427 1664-512 2161-820 4803-8527 15803-14161 20212-1334 1043-1922 723-671-365 340-295 766-897 947-1337 404-983 2461-3731 2793-3731 133 0 378-316 545-701 167-386 1067-1792 2000-3124 932-1332 2011-3054 2397-3825s850-1575 1030-1785c712-831 1924-3394 2039-4312 67-533 295-1461 507-2062s495-2023 628-3161c133-1137 318-2593 410-3236 121-843 53-1389-244-1963-226-438-411-1038-411-1334 0-771-3037-6932-3363-6823-175 58-307 1689-368 4542-198 9231-1390 12756-7325 21664-3963 5947-4589 6920-5832 9053-2401 4123-3027 5280-4056 7506-2683 5800-7062 14173-7453 14251-228 45-731-141-1118-414-691-487-2406-1061-5165-1728-771-187-2758-800-4414-1362-3221-1095-7873-1786-11523-1714l-1785 36-78 1359c-111 1929 16 2009 3467 2196 4833 261 7644 837 10160 2080 1550 766 2018 888 2856 747 873-148 1332-4 3557 1113 2745 1377 2957 1597 2478 2577-538 1101-3698 11426-3698 12083 0 224-334 1596-742 3049s-822 3285-920 4072c-369 2950-1061 2912-1541-86-367-2289-1404-3930-3001-4751-445-229-1452-842-2238-1363-1114-737-1845-1007-3315-1220-3387-493-3901-119-5008 3644-1932 6562-2853 13139-2131 15202 450 1287-1003 2180-2651 1630zm-1722-5781c971-598 1124-1653 342-2361-466-422-502-410-831 277-189 395-666 872-1059 1061-799 382-1070 861-835 1474 190 496 1137 317 2383-451zm-11085-16269c2052-1302 5634-1246 9331 144 2580 971 3085 385 659-764-4945-2341-9010-2311-11577 86-1531 1432-418 1806 1587 534z"/><path d="m45281 72529c-564-564-499-1203 189-1850 670-629 1450-733 1450-193 0 199 316 592 701 874l702 512-1233 529c-1472 632-1317 621-1809 128z"/><path d="m41449 53323c-346-1532-341-4954 8-5947 226-642 388-3305 503-8287 93-4038 267-7800 385-8361 301-1418-163-7024-780-9437-281-1096-510-2366-510-2823 0-1023-816-2979-1663-3986-347-413-632-1022-632-1354 0-838-230-922-2771-1004-2989-97-3893-702-4996-3340-1138-2725-78-3173 7512-3169 7174 3 7024-68 7496 3565 101 771 359 2013 574 2760 216 746 488 2295 605 3442 332 3256 961 7846 1254 9154 147 654 198 1367 115 1583-83 217-30 742 118 1166 148 425 462 2317 698 4205l430 3433-1604 1715c-2348 2510-5794 11576-5873 15449-6 314-160 915-343 1336l-331 765z"/></g></svg>