<svg height="512pt" preserveAspectRatio="xMidYMid meet" viewBox="0 0 512 512" width="512pt" xmlns="http://www.w3.org/2000/svg"><path d="m61717 85693c-180-336-236-1068-143-1876 125-1095 51-1495-430-2312-627-1065-363-953-6701-2836-8927-2651-10495-3606-8800-5355 1515-1563 587-2938-2829-4194-3593-1321-8437 71-11200 3218-467 532-1335 1276-1928 1652-594 376-1520 1080-2059 1563-1081 971-2330 1647-4361 2362-2032 716-2226 407-1613-2564 1106-5360 2023-7494 4098-9536 844-831 1534-1613 1534-1736 0-284-1654-1857-2713-2581-832-569-1935-2879-2385-4993-122-573-528-1846-904-2827-1400-3665-1276-3805 2499-2815 3995 1048 7008 2743 8484 4773 425 586 1114 1176 1530 1312s1127 569 1580 962c2278 1978 5879 1328 8642-1561 1927-2014 1919-1786 115-3607-1441-1454-1529-1609-1203-2102 363-550 3250-1043 4334-741 260 72 719 170 1020 218 2600 409 3712 605 4332 764 504 129 1084 25 1912-341 2102-931 7248-2323 9346-2528 2501-245 2727-639 1186-2059-2840-2615-3130-5152-591-5154 975-1 4478 886 5146 1303 210 132 790 437 1287 680 1647 802 3704 2767 4027 3848 388 1292 752 1566 2386 1793 744 102 1596 319 1894 481s1094 418 1770 570c675 151 2497 889 4048 1639s3107 1450 3458 1555c663 199 1609 794 3584 2253 639 472 1442 942 1785 1044 2227 665 5585 2798 5126 3257-136 136-1664 264-3395 284l-3147 37-65 637c-123 1219 1979 3040 4305 3731 1430 425 1709 847 1291 1956-2261 5990-11939 12705-21001 14572-411 84-1242 782-2108 1768-2499 2846-9581 5348-8285 2926 151-282 207-689 124-904-236-617-977 132-840 849 132 691-10 755-2169 987-1554 166-1700 139-1973-372zm27221-15824c2260-1378 1333-5007-1397-5469-2625-443-4635 2216-3219 4259 1202 1735 2987 2203 4616 1210zm-9180-5241c1867-1308-1092-5107-4395-5643-1694-275-4871 3717-3805 4780 1206 1203 6864 1799 8200 863z" transform="matrix(.003922 0 0 -.003922 0 512)"/></svg>