<svg height="512pt" preserveAspectRatio="xMidYMid meet" viewBox="0 0 512 512" width="512pt" xmlns="http://www.w3.org/2000/svg"><g transform="matrix(.003922 0 0 -.003922 0 512)"><path d="m64898 99727c-1364-225-4779-1936-5946-2979-517-461-1559-1390-2315-2064-1379-1230-6668-7263-7479-8534-1079-1688-1931-3515-2237-4796-183-767-558-1901-832-2522-526-1189-486-2559 96-3260 358-432 1239-367 6600 487 9883 1575 21004 268 28178-3310 5612-2801 7158-2380 6524 1776-428 2804-1713 6044-3793 9564-942 1593-2346 4008-3122 5367-4989 8741-9007 11374-15674 10271zm2805-2648c1606-909 2077-2481 859-2867-617-196-4490 1577-4829 2211-598 1116 2308 1597 3970 656zm9845-9550c2646-2770 2885-3271 1991-4165-1012-1012-3901-243-4669 1243-1597 3088 419 5287 2678 2922zm-21490-3980c100-529-1060-1838-2536-2861-2167-1502-3391-51-1615 1915 1346 1489 3936 2080 4151 946z"/><path d="m60731 74126c-153-183-448-1704-657-3378-743-5946-3493-11111-7289-13692-5375-3653-6590-8187-2442-9113 4329-966 8800-7417 7448-10746-193-473-603-2409-913-4302-566-3460-820-4631-1764-8160-282-1052-574-2209-650-2572-209-1001-1024-1892-3171-3467-6974-5117-8141-8442-3544-10102 596-215 1772-640 2614-945 841-304 2161-653 2932-774 771-122 1976-353 2678-515 1889-436 19490-481 21156-54 697 178 1769 324 2383 324 1501 0 4596 957 5486 1697 397 329 971 598 1275 599 2501 4 3800 3464 2126 5659-739 970-4432 3278-6256 3911-2023 702-2360 961-3635 2797-850 1223-1406 2386-1766 3697-290 1052-643 2314-785 2805-143 491-474 2071-736 3512-262 1440-599 2989-747 3442-420 1280-1040 5417-1212 8091-93 1428-308 2656-525 2991-323 497-320 711 21 1713 1009 2959-1010 6564-3479 6213-744-106-808-8554-92-12212 235-1203 434-3096 442-4207 7-1111 125-2938 260-4060 625-5160 459-7476-581-8126-707-443-793-91-1000 4111-331 6727-694 11580-998 13322-168 962-268 3959-239 7140 27 3015-33 6109-134 6874-103 781-66 1954 85 2677 148 708 399 1975 560 2817 160 841 633 2792 1050 4335 417 1542 842 3149 944 3570 144 592 327 765 814 765 876 0 996-1849 260-4027-861-2549-788-2781 814-2581 1899 237 3918 777 5173 1384 593 287 1567 606 2166 708 1421 243 2202 1192 1857 2258-618 1908-8532 4673-13812 4825-1730 50-2722 215-3617 600-1425 612-2110 666-2500 196zm-2217-21751c907-908 41-4717-1220-5369-1185-613-1508-8-1404 2629 111 2799 1311 4053 2624 2740zm2455-22584c481-900-17-5331-836-7424-832-2129-2818-853-2404 1543 91 524 215 1584 276 2355 283 3595 1898 5516 2964 3526z"/><path d="m54443 73667c-561-123-1422-293-1913-377-5704-979-8282-4937-4290-6586 606-251 1486-619 1954-819 3860-1648 6441-1245 6786 1059 97 645 411 1570 697 2056 598 1014 583 3809-25 4541-371 447-1538 493-3209 126z"/><path d="m70184 61752c-1284-815-1052-6303 259-6116 649 93 879 819 927 2934 16 727 142 1615 278 1974 442 1163-417 1872-1464 1208z"/></g></svg>