<svg height="512pt" preserveAspectRatio="xMidYMid meet" viewBox="0 0 512 512" width="512pt" xmlns="http://www.w3.org/2000/svg"><g transform="matrix(.003922 0 0 -.003922 0 512)"><path d="m67803 91991c-267-623-166-8339 114-8721 743-1017 1188-320 1188 1861 0 2413 232 2724 1844 2476 4260-656 5022-526 5921 1008 781 1332 724 1536-487 1764-488 91-1250 471-1693 843-1029 867-3439 1128-4427 481-788-516-1385-528-1576-30-120 313-784 552-884 318z"/><path d="m63760 80908c-1823-111-2368-401-2254-1198 75-518 212-533 5304-571 2875-21 5572-78 5993-127 831-97 1180 747 649 1568-254 392-5645 575-9692 328z"/><path d="m65663 77601c-4700-598-9915-1581-10586-1995-148-92-252-1721-252-3935 0-4570 0-4570 2324-3855 896 275 3555 975 5910 1556l4282 1055 2476-558c1361-307 4082-999 6046-1536 1963-538 3654-895 3757-795 297 289 518 7512 242 7909-717 1032-10889 2575-14199 2154z"/><path d="m66173 68057c-421-131-1856-472-3188-758-4363-934-8746-2195-14482-4169-9497-3267-9314-3124-7144-5551 1673-1872 3468-4097 4967-6157l808-1111 3665-137c2152-80 5240-408 7480-794 15329-2640 16835-2850 22224-3097l2600-118 902 1079c496 593 1615 2054 2485 3246 1981 2712 5596 7012 6781 8063 513 455 819 919 716 1085-715 1158-12424 5323-20872 7426-5359 1333-5698 1382-6942 993z"/><path d="m41948 47698c-1843-170-2893-351-3928-679-290-91-276-173 68-425 235-172 520-656 633-1077 201-743 244-762 1589-688 5713 314 11888-62 15790-961 9684-2233 11569-2584 17978-3352 8697-1042 19929 1639 18315 4371-635 1075-1246 1148-3019 359-2810-1250-7465-2315-8819-2018-406 89-1130 33-1610-126-681-224-1196-206-2360 87-818 205-2463 447-3655 537-1997 151-6155 823-8925 1442-4734 1059-9689 1981-12877 2398-2034 266-6960 337-9180 132z"/></g></svg>