<svg height="512pt" preserveAspectRatio="xMidYMid meet" viewBox="0 0 512 512" width="512pt" xmlns="http://www.w3.org/2000/svg"><g transform="matrix(.003922 0 0 -.003922 0 512)"><path d="m16501 86796c-385-385-142-1076 837-2389 2250-3016 5078-3785 7368-2005 598 465 2127 631 2941 318 540-207 508-658-123-1727-621-1052-2077-4448-2912-6788-325-912-775-2084-999-2606-224-521-410-1267-413-1657s-359-1685-790-2877c-432-1192-830-2856-884-3697-55-842-208-2318-341-3280-145-1053-149-1991-10-2356 170-448 106-826-243-1438-260-458-547-1335-639-1951-91-615-576-1992-1078-3060-502-1067-1135-2629-1407-3470-484-1498-1233-4131-1233-4337 0-57 670-793 1490-1635 2635-2710 6866-4427 12663-5139 1122-138 2728-344 3570-460 858-117 2873-100 4590 38 1683 136 4723 266 6757 289s5132 152 6885 288c6707 517 17846 125 25245-888 11338-1553 27250 787 34511 5076 1197 707 2294 1285 2438 1285 145 0 640 317 1101 704 1175 989 3540 2527 4176 2716 1122 334 2076 1944 2984 5037 1321 4504-5294 11670-10787 11684-772 2-1805 121-2295 264s-1972 437-3293 652c-1412 230-3672 873-5482 1561-8003 3039-8896 3180-9023 1425-59-809 42-1177 412-1493 864-740 6788-3202 9611-3993 3772-1059 4469-1199 6789-1365 6639-474 10768-3448 6726-4842-842-291-1975-721-2518-957-543-235-1100-428-1237-428-138 0-1276-344-2529-764-4049-1356-9090-1936-15901-1828-5662 90-5433 93-7886-108-1146-94-2581-49-3315 104-1758 367-4845 804-6394 906-1763 117-5708 631-8206 1069-1147 201-2600 366-3229 366-628 0-1870 228-2759 507-1228 385-2383 512-4804 528-1753 12-3819 136-4590 276-2501 452-4700 608-5482 389-1393-390-3165 529-4150 2152-2064 3400-8468 9041-13029 11476-2147 1147-2690 1753-2098 2345 153 153 279 575 279 936 0 362 179 914 399 1227 219 313 649 1335 956 2272 732 2235 994 2248 2073 107 1397-2776 4574-5385 6555-5385 211 0 661-296 1001-657 758-807 3179-2301 4106-2533 375-94 881-390 1123-658 243-268 627-487 855-487 227 0 697-200 1044-445 1249-880 5173-2540 7644-3234 632-177 1669-552 2304-833 636-281 1782-661 2549-845 766-183 1738-475 2159-647 420-173 1797-504 3060-736 1262-233 2868-583 3570-779 2698-755 3460-915 3688-774 130 80 1074-29 2099-243 1024-214 2155-389 2513-389s1735-285 3060-633 3019-635 3765-637c746-3 1586-128 1868-279 662-354 7870-1111 10674-1121l2168-7v1392c0 1365-16 1395-828 1561-455 93-998 311-1208 485-209 174-538 256-729 182-192-74-1313-27-2490 103-1177 131-2944 278-3925 328-982 50-2474 228-3315 395-842 167-1932 341-2423 386-491 46-1868 277-3060 514s-3831 694-5865 1016c-6578 1041-11465 2332-18870 4987-1613 578-3391 1196-3952 1374-3124 991-6254 3469-4384 3469 687 0 3414 1271 4850 2260 585 403 1616 1043 2290 1424 1520 856 1620 1106 959 2401-731 1433-151 5458 974 6757 1271 1468 9558-1031 9932-2995 102-536 18-528-2546 244-2224 669-3533 96-3533-1546 0-1337 220-1660 1132-1660 452 0 1386-290 2076-645 5032-2588 5492-2611 6301-311 2027 5760 2216 5246-3006 8173-4262 2389-4419 2436-8698 2629-4340 196-4456 155-4957-1761-154-590-457-1417-675-1837-884-1714-1353-3565-1353-5341v-1818l-1225-915c-4572-3413-11837-2836-13130 1044-251 755-719 1683-1038 2063-320 380-725 1035-899 1456s-596 914-937 1097c-348 186-623 565-627 863-39 3719-6100 6412-8560 3803-1137-1205-1915-1141-2837 234-714 1066-3278 1745-3971 1052zm10994-21190c656-382 1658-1041 2228-1466 569-425 1700-1231 2512-1792 2823-1949 7035-6169 7035-7048 0-195-341-225-1084-94-596 105-2288 224-3761 265-4265 119-8929 669-9365 1105-542 543-133 7247 575 9405 154 472 536 395 1860-375zm91793-13613c123-1423-472-2845-1375-3286-433-211-1408-914-2167-1561-2928-2498-7479-4865-11551-6007-6644-1862-19778-2757-27272-1857-2266 272-4809 495-5650 495-842 0-3194 185-5228 410-3668 408-8529 326-16065-270-3434-271-14261-335-15868-93-804 121-2478 251-3721 287-1664 50-2445 189-2963 528-387 253-1295 669-2017 924-4788 1687-5337 2216-4440 4282 348 802 834 2126 1081 2943 559 1856 1119 2191 2723 1630 1706-596 3987-1143 5953-1427 2255-326 4484-713 6120-1062 701-150 2193-387 3315-527s2326-294 2677-342 2244-280 4208-515c1963-236 4315-587 5227-782s3494-596 5738-893c8230-1087 9321-1243 9512-1362 108-66 1683-303 3502-527 1818-224 4625-591 6238-816 5286-739 19252-254 23078 801 701 193 1845 433 2542 532 1539 221 5118 1831 6780 3050 669 491 1570 1017 2003 1168 790 275 1029 809 508 1131-154 95-612-73-1019-374-951-703-3639-1545-4944-1550-557-2-1877-172-2932-378-3483-681-6568-1155-7518-1155-515 0-1151-115-1414-255-830-445-12531-506-15299-81-1332 205-2996 418-3697 474-702 56-2136 279-3188 495-2951 607-4371 867-5482 1005-561 70-2856 377-5100 682s-4425 582-4845 615c-421 33-1856 257-3188 498s-3111 440-3952 441c-842 2-2198 169-3014 371-817 203-1684 305-1927 228-244-78-1011-23-1704 122-693 144-2121 376-3173 516s-2634 430-3516 646c-881 215-1834 318-2116 229-684-218-1990 599-1478 923 592 375 8637 277 10060-122 741-208 2529-357 4357-364 1923-7 3713-164 4717-413 890-220 3056-447 4812-503 2279-74 4252-329 6885-890 4579-975 8115-1385 17801-2066 6877-482 22915-309 24424 265 353 134 1034 244 1513 244 1659 0 10351 3328 11124 4259 453 546 843 245 925-716z"/><path d="m23715 47379c0-2989 8594-5801 14662-4798 842 139 1737 187 1989 107s724 28 1048 241c324 212 1036 423 1582 467 789 65 992 184 992 584 0 471-388 538-6120 1057-3366 305-6407 619-6758 697-3565 797-5234 1275-5931 1700-1071 653-1464 638-1464-55z"/><path d="m71314 77839c-63-105-54-1258 21-2560l137-2369 1337-888c2326-1544 3748 374 2530 3417-665 1663-3461 3330-4025 2400z"/><path d="m78674 73451c-616-997 617-3822 1983-4545 2009-1064 3268 635 2314 3122-352 917-3886 2087-4297 1423z"/><path d="m86260 69305c396-2367 2990-4499 4111-3378 1579 1579 5 3619-3132 4058l-1119 157z"/></g></svg>