<svg height="512pt" preserveAspectRatio="xMidYMid meet" viewBox="0 0 512 512" width="512pt" xmlns="http://www.w3.org/2000/svg"><g transform="matrix(.003922 0 0 -.003922 0 512)"><path d="m51236 96836c-999-876-2396-2052-3104-2613-921-729-1376-1312-1597-2040-170-561-611-1695-982-2518-370-824-673-1609-673-1743s-353-1124-784-2200c-895-2233-1419-6023-1555-11262l-83-3187 2805-1412c1542-776 4231-2354 5974-3506 3418-2260 3405-2255 4353-1712 919 525 5682 527 6117 3 399-480 196-552-2088-736-1843-149-3198-722-6069-2565-912-585-2748-1683-4080-2439s-2470-1410-2528-1452c-236-173 1493-7474 2525-10661 409-1263 892-2927 1074-3698 411-1738 1190-2063 1857-773 369 713 372 1012 29 3139-362 2247-723 5039-1046 8102-178 1677-225 1620 3071 3716 4350 2767 6906 3921 8685 3921 1750 0 1332-905-948-2056-1845-931-3141-2254-3696-3774-237-650-758-1948-1157-2883-859-2012-865-2088-248-3114 264-438 733-1599 1044-2580 311-982 891-2703 1289-3825s966-2877 1262-3900c577-1993 1199-2552 2483-2230 722 181 725 440 53 3619-2065 9752-2097 10068-1178 11691 729 1287 1181 1290 1624 11 1350-3899 5852-3864 6846 52 389 1529 848 1548 1592 64 754-1502 625-3039-737-8760-1380-5799-1398-6389-199-6489 1182-99 1280 37 2528 3531 2644 7402 3130 8654 3466 8933 426 353 463 1094 91 1790-148 276-594 1411-992 2524-908 2542-1909 3810-4199 5323-2100 1387-2295 1910-756 2022 1529 112 3572-703 6248-2494 1291-863 2900-1849 3575-2192 1457-738 1621-1179 1399-3760-416-4843-641-6804-952-8283-352-1677-242-2168 609-2705 819-517 1016-16 2892 7373 2125 8366 2122 8281 273 9218-1346 682-2533 1424-6554 4093l-2422 1609-2344-2c-1289 0-2408 103-2486 229-472 763 4752 1096 6399 408 1513-633 3155 99 6846 3053 561 449 2224 1365 3697 2036 3177 1448 3051 1295 3056 3724 13 6484-851 11139-3050 16432-408 981-804 2085-880 2452-80 386-652 1082-1354 1648-668 539-2050 1702-3071 2584-1881 1623-2507 1903-2764 1233-152-396 819-1760 2757-3873 661-722 1281-1640 1377-2040 95-401 570-1934 1055-3407 653-1983 939-3406 1101-5482 120-1543 336-4240 480-5993s264-3263 267-3355-883-535-1970-984c-1963-812-4798-2281-7965-4131-2567-1498-3349-1219-2449 875 379 884 782 3925 1192 8998 301 3716-184 5659-2512 10067-2901 5493-3423 4345-1568-3446 1503-6310-1591-19327-3970-16699-633 699-1520 648-2126-122-276-351-584-638-683-638-100 0-408 287-684 638-275 350-647 637-825 637-890 0-1274 1099-2563 7333-371 1797-151 7577 335 8793 325 813 1059 5188 1059 6311 0 930-592 1035-1100 194-3809-6299-4779-9545-4247-14216 136-1192 354-3430 485-4973 130-1543 359-3129 509-3523 667-1754 206-1849-2010-417-879 568-3421 1946-5650 3062s-4060 2172-4069 2346c-91 1657 119 4929 416 6481 201 1053 366 2418 366 3035 0 1140 1109 5534 2003 7936 271 729 1366 2484 2432 3900 2816 3737 2537 4501-629 1724z"/><path d="m73950 91979c0-183 111-443 248-580 1001-1001 4153-10963 4734-14963 208-1429 296-1444 2286-375 2160 1160 2155 1196-1217 8727-2009 4486-6051 9289-6051 7191z"/><path d="m57322 90578c-2336-2497-6871-12444-6139-13462 316-439 3202-1670 3403-1451 100 109 298 829 439 1600 733 3996 1506 6856 2754 10191 1838 4908 1753 5485-457 3122z"/></g></svg>