<svg height="512pt" preserveAspectRatio="xMidYMid meet" viewBox="0 0 512 512" width="512pt" xmlns="http://www.w3.org/2000/svg"><path d="m96792 98643c-341-200-1744-242-4569-137-2744 102-4251 61-4609-127-992-522-2059-1513-2954-2745-1251-1721-3760-4679-8793-10363-633-716-1152-1383-1152-1483 0-255-1333-1885-3533-4320-1032-1141-2087-2488-2344-2993-834-1632-2305-2205-2883-1122-623 1169-2117 3361-2712 3981-352 367-1042 1221-1533 1898s-1810 2227-2932 3446c-1937 2103-3598 4133-4482 5480-220 336-1155 1445-2077 2465s-2326 2629-3120 3575c-2103 2504-1129 2329-13345 2407-12219 78-11897 135-10084-1788 552-585 1146-1351 1320-1702s694-885 1157-1187 1405-1259 2094-2126c688-867 1955-2284 2814-3148 860-864 1636-1811 1726-2104 89-294 447-686 796-872 348-187 633-516 633-733 0-216 617-977 1371-1690s1611-1766 1904-2341 1526-1946 2739-3048 2669-2692 3235-3533c565-842 1757-2294 2647-3227s1619-1824 1619-1980c0-155 1331-1687 2958-3403 3483-3674 3962-4302 3412-4475-517-163-2865-2593-4712-4877-842-1041-2234-2656-3093-3589-860-933-1636-1924-1724-2203-89-279-504-761-924-1071-419-310-762-763-762-1007 0-540-1739-2402-3381-3621-661-491-1429-1265-1707-1721-277-456-659-829-848-829-441 0-1325-1199-1549-2104-96-385-343-701-549-701-205 0-691-486-1079-1079-387-594-948-1311-1246-1594-1459-1386-6726-7263-6726-7505 0-152-238-515-530-807-704-704-453-1252 586-1273 17946-365 18866-360 19707 113 1543 869 3073 2289 3570 3315 371 766 814 1199 1628 1590 616 295 1247 764 1403 1042 391 697 2634 3281 3781 4357 522 489 1084 1304 1250 1811 327 999 456 1159 4808 5986 3322 3685 3671 3838 4381 1922 422-1140 5144-6348 5755-6348 135 0 570-602 967-1339 1149-2127 3891-5222 5270-5947 375-197 761-618 857-935 213-706 1372-1979 1801-1979 172 0 787-595 1366-1323 1628-2044 2245-2294 5620-2267 7982 64 10781 18 13133-213 5907-582 6512-405 4713 1381-566 561-1779 1880-2696 2932-3958 4539-7154 7905-7507 7905-114 0-280 332-370 739-206 938-902 1570-1971 1786-666 135-856 311-919 849-48 416-714 1352-1717 2414-900 954-1957 2079-2349 2500-392 420-1252 1522-1912 2448-661 926-1645 1991-2188 2368-543 376-1375 1281-1848 2012-473 730-2096 2603-3607 4163-1511 1559-2747 2959-2747 3111 0 231 2321 2828 5900 6600 423 446 1134 1316 1579 1932 836 1158 2106 2685 4476 5383 755 859 1826 2172 2379 2918 553 745 2116 2471 3472 3836 1357 1365 3385 3737 4507 5270 1122 1534 2728 3443 3570 4242 841 799 1931 1992 2422 2652 491 659 1380 1696 1976 2303 1398 1425 1366 1629-255 1660-4489 87-8151 219-9371 338-835 81-1601 20-1893-151z" transform="matrix(.003922 0 0 -.003922 0 512)"/></svg>